<svg id="Layer_1" data-name="Layer 1" xmlns="http://www.w3.org/2000/svg" viewBox="0 0 50 50"><defs><style>.cls-1,.cls-2,.cls-3,.cls-4,.cls-5{fill:#e16bff;}.cls-1{fill-opacity:0.15;}.cls-2{fill-opacity:0.3;}.cls-3{opacity:0.45;isolation:isolate;}.cls-5{fill-opacity:0.45;}</style></defs><circle class="cls-1" cx="25" cy="25" r="25"/><path class="cls-2" d="M50,24.78v-.14c0-.36,0-.72,0-1.07v-.11a1.62,1.62,0,0,0,0-.18V23a1,1,0,0,0,0-.16,1.94,1.94,0,0,0,0-.24,25,25,0,0,0-42-15.89A24.83,24.83,0,0,0,.08,23.07c0,.07,0,.14,0,.21v.07c0,.11,0,.21,0,.32,0,.35,0,.71,0,1.07v.81c0,.38,0,.75,0,1.12,0,.11,0,.23,0,.35v0a1.09,1.09,0,0,0,0,.18c0,.15,0,.3,0,.45s0,.21,0,.31,0,.39.07.59,0,.2.05.3l0,.32c0,.15,0,.3.08.45s0,.05,0,.08,0,.24.07.35a1.62,1.62,0,0,1,0,.19l.09.41c.06.26.12.51.19.76l.12.45a.07.07,0,0,0,0,.05l.09.27c0,.16.09.31.14.46s.09.28.14.42c.11.35.24.69.37,1l.05.1,0,.12a1.47,1.47,0,0,1,.07.17c0,.08.07.17.11.26H2c.2.47.41.93.64,1.38l.12.25,0,.06.23.43L3,37l0,0,.12.22c.15.26.3.52.46.78l.16.25.08.13,0,0,.13.22c.09.12.17.25.26.38l.17.25.16.24,0,.07.07.1.42.56c.14.18.24.31.37.46l.38.47.2.22.56.63.1.11.28.29.07.07,0,0,.34.34s0,0,0,0l.07.07a3.83,3.83,0,0,1,.29.28l.12.1.62.56.23.2.93.75.56.41.1.08.07,0,.25.17.25.16.38.26.21.13,0,0,.13.09.26.15.78.46.53.29.27.14.27.13q.68.34,1.38.63s0,0,0,0l.27.11.17.07.11.05.11,0,1,.38.42.14.46.14.28.08h0l.45.12.76.19.42.09.19,0,.35.07h.09l.44.08.32,0,.3.05.6.07.3,0,.45,0h.23l.35,0,1.12,0h.9c.38,0,.75,0,1.12,0,.12,0,.24,0,.35,0h.23l.45,0,.3,0,.6-.07.3-.05.32,0,.45-.08h.08l.36-.07.18,0,.42-.09.76-.19.45-.12h.05l.27-.08.47-.14L33,48.7l1-.38.11,0,.11-.05.17-.07.27-.11s0,0,0,0q.7-.28,1.38-.63l.27-.13.27-.14.53-.29c.27-.15.53-.3.78-.46l.26-.15.13-.09,0,0,.21-.13.39-.26.25-.16.24-.17.07,0,.1-.08.56-.41.93-.75.23-.2.62-.56.12-.1.29-.28.07-.07s0,0,0,0l.34-.34,0,0h0a.46.46,0,0,0,.07-.07l.28-.29.11-.11.56-.63.19-.22c.26-.31.51-.62.76-.94l.41-.55.07-.1.05-.07.17-.24.17-.25c.08-.13.16-.26.25-.38l.14-.22,0,0,.08-.13.15-.25c.16-.26.31-.52.46-.78s.2-.35.29-.53l.14-.27.14-.27q.33-.68.63-1.38h0c0-.09.08-.18.11-.27a1.11,1.11,0,0,0,.07-.16.73.73,0,0,1,0-.12s0-.07,0-.11c.13-.33.26-.68.38-1,0-.14.09-.28.13-.42s.1-.3.15-.46A2.76,2.76,0,0,1,49,32s0,0,0-.05l.12-.45c.07-.25.13-.5.19-.76l.09-.41c0-.06,0-.12,0-.19s0-.23.07-.35a.29.29,0,0,1,0-.09c0-.14.05-.29.07-.44l0-.32c0-.1,0-.2.05-.3s0-.39.08-.59l0-.31c0-.15,0-.3,0-.45s0-.12,0-.18v0l0-.36c0-.37,0-.74,0-1.11V25.1A.61.61,0,0,0,50,24.78ZM24.91,2.25a23,23,0,0,1,22.45,17.9,26.62,26.62,0,0,0-7.3-1.73,26.38,26.38,0,0,0-12,2c-1.33.5-2.62,1-3.93,1.55l-1-.4-.87-.33a26.22,26.22,0,0,0-12-2,25.41,25.41,0,0,0-4.5.8l-.65.19-.63.19-.62.21-.69.26-.43.16-.52.22a23,23,0,0,1,22.67-19Z"/><path class="cls-3" d="M50,25.78v.44c0,.36,0,.72,0,1.08,0,.12,0,.23,0,.35v0a1.1,1.1,0,0,1,0,.18c0,.15,0,.29,0,.44l0,.3c0,.19-.05.38-.08.57s0,.2,0,.29l0,.31c0,.15-.05.29-.08.44a.24.24,0,0,1,0,.08,3.4,3.4,0,0,1-.07.34,1,1,0,0,1,0,.18l-.09.41c-.06.24-.12.49-.19.74s-.07.29-.12.43,0,0,0,0,0,.17-.08.26-.09.3-.14.45-.09.27-.14.4c-.12.34-.25.68-.38,1,0,0,0,.07,0,.11l-.05.11a1,1,0,0,1-.07.16l-.07.18,0,.09c-.2.45-.41.9-.64,1.34l-.13.26-.14.26-.14.26-.15.26-.3.5c0,.09-.1.16-.16.25l-.1.17-.05.08-.09.12,0,0L46,39l-.09.13-.17.24-.17.24-.12.16,0,.08,0,.06a.36.36,0,0,1-.07.1l-.41.54-.44.54-.12.14-.2.22-.19.23-.4.43-.17.17,0,0-.2.21-.21.21-.21.21-.21.2-.22.21L42,43.5l0,0-.18.17-.45.38-.22.19-.23.19-.15.12L40.2,45l-.55.4-.11.07-.06.05-.08,0-.16.12-.25.16-.26.16-.13.09-.21.13,0,0-.13.08-.09,0-.16.1-.26.15-.53.29-.26.14-.27.14-.26.14-.27.13c-.46.22-.92.42-1.39.61l-.1,0-.19.08-.17.06-.11,0-.11,0c-.34.13-.69.25-1,.36l-.42.14-.46.13-.28.08,0,0-.45.11-.76.19-.42.08-.18,0-.36.07h-.08l-.45.08-.32,0-.3,0-.6.08-.3,0-.45,0h-.23l-.35,0c-.37,0-.74,0-1.12,0h-.9c-.38,0-.75,0-1.12,0l-.35,0h-.23l-.45,0-.3,0-.6-.08-.3,0-.32,0-.45-.08h-.08L20,49.52l-.18,0-.42-.08-.76-.19-.45-.11-.05,0L17.86,49l-.46-.13L17,48.73c-.35-.11-.7-.23-1-.36l-.11,0-.11,0-.17-.06-.19-.08-.09,0c-.47-.19-.93-.39-1.38-.61l-.27-.13-.27-.14-.27-.14-.26-.14c-.18-.09-.35-.19-.52-.29L12,46.5l-.17-.1-.08,0-.13-.08,0,0-.22-.13L11.28,46,11,45.87l-.25-.16-.17-.12-.07-.05-.07,0-.1-.07c-.19-.13-.38-.26-.56-.4l-.55-.42-.15-.12-.23-.19-.23-.19-.45-.38L8,43.55l0,0-.22-.2-.21-.21-.21-.2-.21-.21-.21-.2-.23-.21,0,0-.17-.18-.4-.43-.19-.22-.2-.22L5.51,41c-.07-.07-.13-.15-.19-.22l-.19-.23L4.72,40l-.08-.1a.25.25,0,0,1,0-.07l0-.07-.12-.16-.17-.24-.17-.24L4,39l-.13-.21,0,0-.09-.13,0-.08-.1-.16a2.13,2.13,0,0,1-.16-.25q-.15-.24-.3-.51L3,37.39l0,0,0-.07-.23-.42,0,0-.12-.24c-.23-.44-.44-.89-.64-1.34l0-.1L1.84,35c0-.06-.05-.11-.07-.17a.76.76,0,0,1,0-.11l-.05-.1c-.13-.33-.26-.67-.37-1-.05-.13-.1-.27-.14-.4s-.1-.3-.14-.45l-.09-.27a.08.08,0,0,0,0,0L.81,32c-.07-.24-.13-.48-.19-.74l-.09-.4a1.16,1.16,0,0,0,0-.18c0-.11,0-.23-.07-.34s0-.06,0-.08-.06-.29-.08-.44l0-.31c0-.1,0-.19-.05-.29S.18,28.8.16,28.6s0-.19,0-.29,0-.29,0-.44,0-.12,0-.18v0l0-.34c0-.36,0-.72,0-1.08v-.79a2.72,2.72,0,0,1,0-.28c0-.13,0-.25,0-.38a2.72,2.72,0,0,1,0-.28v-.22a1.36,1.36,0,0,1,0-.2v0l0-.15a.34.34,0,0,1,0-.1v0l0-.3v-.12c0-.11,0-.22.05-.34.66-.32,1.35-.65,2.07-.94l.52-.21.42-.16.69-.25.63-.21L5.13,21l.65-.18a26.31,26.31,0,0,1,4.5-.78,27.06,27.06,0,0,1,12,1.91l.87.33,1,.38c4.35,1.68,8.54,3.46,14.1,3.09a24,24,0,0,0,9.5-2.74c.63-.32,1.27-.69,1.93-1.09h0c0,.14,0,.28.07.42l.06.41,0,.23c0,.12,0,.24,0,.36s0,.32,0,.48,0,.3,0,.45c0,.34,0,.69,0,1C50,25.48,50,25.63,50,25.78Z"/><path class="cls-4" d="M46.67,35.72a2.75,2.75,0,0,1-.17.29v0c-.22.36-.44.7-.66,1v0c-.18.23-.33.46-.5.68a2.7,2.7,0,0,1-.22.33l-.45.59a23.48,23.48,0,0,1-1.94,2.17c-.29.29-.57.58-.88.86l-.22.2c-.15.14-.32.29-.47.41s-.46.37-.7.58A26.19,26.19,0,0,1,37.29,45c-.49.27-1,.55-1.51.8-.37.19-.74.36-1.13.52s-.77.32-1.16.46-.52.18-.79.27l-.39.09-.32.11-.28.08c-.55.17-1.15.31-1.74.43-.22.05-.44.1-.66.13a20.19,20.19,0,0,1-2,.28c-.39,0-.8.08-1.2.1s-.87,0-1.31,0-.88,0-1.3,0-.8,0-1.2-.1a17.89,17.89,0,0,1-1.93-.26c-.59-.1-1.2-.22-1.78-.37l-1-.28-1-.3c-.61-.21-1.22-.45-1.81-.7-.36-.16-.72-.31-1.06-.48q-.83-.41-1.62-.87a22.34,22.34,0,0,1-3-2.06l-.88-.73-.29-.26-.22-.2c-.3-.27-.59-.56-.88-.86a12.16,12.16,0,0,1-1-1.1l-.46-.53A3,3,0,0,1,5,38.85a28.25,28.25,0,0,0,14.63,1.43c4.36-.78,7.15-2.5,10.9-3.76a26.64,26.64,0,0,1,6-1.34A31.73,31.73,0,0,1,46.67,35.72Z"/><circle class="cls-5" cx="30" cy="10" r="3.33"/><circle class="cls-4" cx="8.33" cy="31.67" r="3.33"/><circle class="cls-5" cx="37.5" cy="14.17" r="2.5"/><circle class="cls-4" cx="17.5" cy="35.83" r="2.5"/></svg>