<svg width="10" height="13" viewBox="0 0 10 13" fill="none" xmlns="http://www.w3.org/2000/svg">
<path d="M6.40804 2.20593C6.95025 2.77469 7.48917 3.35014 8.0511 3.9122C8.50545 4.33583 8.90319 4.81838 9.23409 5.34748C9.8345 6.36334 10.0929 7.55092 9.97018 8.72991C9.88228 9.54221 9.62457 10.3259 9.21438 11.0284C8.82384 11.7058 8.23253 12.2399 7.52532 12.554C6.79217 12.9065 5.98017 13.0543 5.17246 12.9822C4.80442 12.9488 4.43309 12.9554 4.06504 12.9287C3.22322 12.8712 2.41696 12.5613 1.74793 12.0379C1.0789 11.5146 0.577075 10.8012 0.305732 9.98787C0.0364378 9.13665 -0.0564358 8.2378 0.0329846 7.34817C0.190718 5.31068 1.1404 3.66797 2.56658 2.30295C3.54754 1.36373 4.67746 0.600197 5.90855 0.0446535C5.98584 0.00789347 6.07154 -0.00659325 6.15635 0.00276802C6.24116 0.0121293 6.32182 0.0449803 6.38958 0.0977501C6.45733 0.15052 6.50958 0.221189 6.54064 0.302076C6.57171 0.382962 6.5804 0.470971 6.56577 0.556535C6.50662 1.04834 6.4409 1.53681 6.37847 2.02527C6.37847 2.09553 6.37847 2.16578 6.37847 2.2327L6.40804 2.20593ZM6.80237 10.8076C7.05632 10.7329 7.27915 10.5754 7.43659 10.3592C7.8836 9.75403 8.13371 9.02176 8.15198 8.26476C8.17024 7.50776 7.95574 6.76387 7.53846 6.13705C7.40702 5.93631 7.246 5.76234 7.09812 5.57498H7.05212C7.04796 5.91421 6.97146 6.24847 6.82791 6.55464C6.68436 6.8608 6.47719 7.13155 6.22073 7.34817C6.14187 7.2846 6.07614 7.23442 6.01699 7.18089C5.49389 6.69515 5.09561 6.08635 4.857 5.4077C4.5779 4.65009 4.4462 3.84445 4.46923 3.03565C4.46923 2.95535 4.46923 2.8784 4.46923 2.79142L4.39694 2.81818L4.26221 2.91521C3.32146 3.62393 2.6015 4.59391 2.18867 5.70881C1.77351 6.71871 1.6737 7.83423 1.90278 8.90389C2.02163 9.50966 2.32797 10.0607 2.77689 10.4763C3.19008 10.8414 3.7153 11.0484 4.26221 11.0618L4.13734 10.8912C3.81719 10.4892 3.5923 10.0176 3.48012 9.51279C3.32678 8.81044 3.32118 8.08299 3.46368 7.37828C3.51298 7.10059 3.58198 6.82625 3.64113 6.55191C3.68714 6.57867 3.697 6.60209 3.70028 6.62551C3.78241 7.08969 3.92728 7.54005 4.13076 7.96376C4.26387 8.27805 4.46376 8.55839 4.71605 8.78458C4.96834 9.01078 5.26675 9.17722 5.5898 9.27191C5.95549 9.37975 6.27132 9.61705 6.48033 9.94103C6.65027 10.2016 6.76035 10.4977 6.80237 10.8076Z" fill="#36B04A"/>
</svg>
