<svg width="15" height="15" viewBox="0 0 15 15" fill="none" xmlns="http://www.w3.org/2000/svg">
<path d="M14.467 3.83467C14.4704 3.70144 14.4462 3.56895 14.3959 3.44556C14.3455 3.32217 14.2701 3.21055 14.1745 3.11775C13.763 2.71267 13.3547 2.30117 12.9464 1.89287L11.3068 0.259708C11.2538 0.18604 11.1855 0.124808 11.1064 0.0802841C11.0274 0.0357597 10.9396 0.00901437 10.8491 0.00191355C10.7587 -0.00518727 10.6678 0.0075274 10.5828 0.0391707C10.4978 0.0708139 10.4207 0.120624 10.3569 0.185127C10.2931 0.24963 10.2441 0.327272 10.2134 0.41264C10.1827 0.498007 10.171 0.589044 10.1791 0.6794C10.1872 0.769757 10.2149 0.857258 10.2603 0.9358C10.3057 1.01434 10.3677 1.08204 10.442 1.13416C10.8181 1.51352 11.2007 1.90573 11.5736 2.26259V2.32046C11.0551 2.47453 10.6095 2.8102 10.3183 3.26601C10.027 3.72182 9.90972 4.26727 9.9878 4.8025C10.0659 5.33774 10.3341 5.82694 10.7434 6.18056C11.1527 6.53418 11.6757 6.72854 12.2166 6.72808C12.5709 6.7292 12.9204 6.64542 13.2357 6.48374V10.6792C13.2357 11.4218 13.2357 12.1645 13.2357 12.9071C13.2357 13.1262 13.1487 13.3364 12.9937 13.4913C12.8388 13.6463 12.6286 13.7333 12.4095 13.7333C12.1904 13.7333 11.9802 13.6463 11.8253 13.4913C11.6703 13.3364 11.5833 13.1262 11.5833 12.9071C11.5833 12.6981 11.5833 12.4924 11.5833 12.2866C11.5833 11.1035 11.5833 9.92047 11.5833 8.75025C11.5746 8.41794 11.4656 8.09604 11.2705 7.82691C11.0754 7.55777 10.8033 7.35402 10.4902 7.24246C10.158 7.14904 9.81203 7.11423 9.46786 7.13958H9.09494V6.85667C9.09494 5.15921 9.09494 3.46389 9.09494 1.77071C9.10019 1.54901 9.0605 1.32855 8.97827 1.12261C8.89603 0.916661 8.77296 0.729496 8.61645 0.572391C8.45995 0.415285 8.27326 0.291492 8.06763 0.20847C7.862 0.125448 7.64169 0.0849169 7.41998 0.0893187C5.49104 0.0893187 3.57175 0.0893187 1.6621 0.0893187C1.44471 0.0876232 1.22913 0.128924 1.02776 0.210846C0.826385 0.292767 0.643197 0.413693 0.488729 0.566667C0.33426 0.719642 0.21156 0.901646 0.127686 1.10221C0.043811 1.30278 0.000417165 1.51795 0 1.73534C0 2.25294 0 2.77054 0 3.28814V9.39644C0 11.2225 0 13.0507 0 14.881C0 14.9196 0 14.955 0 15H9.09815V8.39339C9.1303 8.39339 9.13995 8.37089 9.1528 8.37089H9.83758C10.1848 8.37089 10.3423 8.52842 10.3423 8.87884C10.3423 10.2195 10.3423 11.5601 10.3423 12.9007C10.3473 13.2028 10.4167 13.5004 10.5459 13.7737C10.6751 14.0469 10.861 14.2894 11.0913 14.485C11.3217 14.6806 11.5911 14.8249 11.8816 14.9082C12.1721 14.9914 12.477 15.0118 12.776 14.9679C13.2072 14.8891 13.6026 14.6764 13.9062 14.3602C14.2097 14.044 14.4059 13.6402 14.467 13.2061C14.5056 12.7849 14.4927 12.3606 14.4927 11.9394C14.4756 9.23677 14.467 6.53518 14.467 3.83467ZM7.42319 5.8697H1.63638V1.75785H7.42319V5.8697ZM12.4867 5.73146C12.382 5.76096 12.2739 5.77611 12.1652 5.77647C11.9069 5.77905 11.6551 5.6959 11.4492 5.54004C11.2433 5.38418 11.0949 5.16441 11.0272 4.91517C10.9596 4.66593 10.9765 4.40129 11.0754 4.16271C11.1743 3.92413 11.3495 3.72509 11.5736 3.59677C11.7511 3.49308 11.9531 3.4387 12.1587 3.43924C12.441 3.43922 12.7137 3.54122 12.9267 3.72644C13.1397 3.91166 13.2786 4.16762 13.3177 4.44715C13.3569 4.72667 13.2937 5.01093 13.1398 5.24754C12.9859 5.48414 12.7516 5.65715 12.4802 5.73467L12.4867 5.73146Z" fill="#979797"/>
</svg>
