<svg width="24" height="21" viewBox="0 0 24 21" fill="none" xmlns="http://www.w3.org/2000/svg">
<path d="M21.3267 12.041C21.0423 12.664 20.696 13.2565 20.2931 13.8095C19.3424 15.123 18.0957 16.1916 16.655 16.9276C15.2143 17.6637 13.6207 18.0462 12.0045 18.0441C10.3815 18.0446 8.78156 17.657 7.33701 16.9132C5.89245 16.1694 4.64473 15.0909 3.69691 13.7666C3.2991 13.2133 2.95712 12.6215 2.67604 12L0 13.2194C0.0828796 13.4018 0.169084 13.5812 0.258619 13.7575C1.36016 15.9314 3.03707 17.7578 5.10479 19.0356C7.17252 20.3134 9.55091 20.9931 11.9782 21C14.4056 21.0065 16.7876 20.3395 18.8619 19.0724C20.9362 17.8053 22.6222 15.9872 23.7341 13.8186C23.8249 13.6362 23.9156 13.4538 24 13.2714L21.3267 12.041Z" fill="#E16BFF" fill-opacity="0.15"/>
<path d="M15.5969 10.014C15.2825 10.7123 14.7735 11.3032 14.1321 11.7146C13.4907 12.126 12.7445 12.3403 11.9845 12.3312C11.2307 12.3301 10.4933 12.1096 9.86063 11.6961C9.22797 11.2826 8.72698 10.6937 8.41779 10L6 11.1051C6.48063 12.1867 7.24183 13.1173 8.20318 13.7985C9.31977 14.5863 10.6506 15.006 12.0131 14.9999C13.3599 15.0047 14.6755 14.5904 15.7805 13.8134C16.7465 13.1339 17.5132 12.2043 18 11.1224L15.5969 10.014Z" fill="#E16BFF" fill-opacity="0.45"/>
<circle cx="12" cy="4" r="4" fill="#E16BFF"/>
</svg>
