<svg id="Layer_1" data-name="Layer 1" xmlns="http://www.w3.org/2000/svg" viewBox="0 0 50 50"><defs><style>.cls-1,.cls-2{fill:#3ba94a;}.cls-1{opacity:0.15;}</style></defs><circle class="cls-1" cx="25" cy="25" r="24.5"/><path class="cls-2" d="M29.32,12.17c1.65,1.7,3.29,3.42,5,5.1a21.41,21.41,0,0,1,3.6,4.29,16.28,16.28,0,0,1,2.24,10.11,17.11,17.11,0,0,1-2.3,6.87,11.11,11.11,0,0,1-5.14,4.56,13.92,13.92,0,0,1-7.16,1.28c-1.12-.1-2.25-.08-3.37-.16a13,13,0,0,1-11.44-8.79,19.32,19.32,0,0,1-.83-7.89c.48-6.09,3.37-11,7.71-15.08A36.34,36.34,0,0,1,27.8,5.71a1.42,1.42,0,0,1,2,1.53c-.18,1.47-.38,2.93-.57,4.39,0,.21,0,.42,0,.62Zm1.2,25.71a3.67,3.67,0,0,0,1.93-1.34,10.86,10.86,0,0,0,.31-12.62c-.4-.6-.89-1.12-1.34-1.68l-.14,0a7,7,0,0,1-2.53,5.3c-.24-.19-.44-.34-.62-.5a13.19,13.19,0,0,1-3.53-5.3,18.65,18.65,0,0,1-1.18-7.09c0-.24,0-.47,0-.73L23.2,14l-.41.29a18.51,18.51,0,0,0-6.31,8.35,15.94,15.94,0,0,0-.87,9.55,8.64,8.64,0,0,0,2.66,4.7,7.16,7.16,0,0,0,4.52,1.75l-.38-.51a10.07,10.07,0,0,1-2-4.12,15.24,15.24,0,0,1-.05-6.38c.15-.83.36-1.65.54-2.47.14.08.17.15.18.22a15.27,15.27,0,0,0,1.31,4,6.92,6.92,0,0,0,4.44,3.91,4.86,4.86,0,0,1,2.71,2A6.22,6.22,0,0,1,30.52,37.88Z"/></svg>