<svg id="Layer_1" data-name="Layer 1" xmlns="http://www.w3.org/2000/svg" viewBox="0 0 18 18"><path fill="#E16BFF" d="M460,171.68H447.8q-138.14,0-276.27,0c-6.85,0-13.88-.09-20.49,1.35-26.52,5.79-44.41,28.13-45.43,56.47-.47,12.81.06,25.66-.21,38.48-.31,14.92-8.75,24.43-21.77,25.09a22.87,22.87,0,0,1-24.17-21.55c-1.39-25.95-3.22-52.06,6.17-77.39C81,152.64,119,125,163.41,124.87c93.46-.27,186.93-.09,280.39-.09h19.83c-5.61-5.32-8.87-8.79-12.51-11.8-16.21-13.44-32.54-26.73-48.8-40.13A107,107,0,0,1,392,63.78c-10.25-10.94-10.59-23-1.23-33.07,8.19-8.78,21.77-9.5,32.36-1.17C434,38,444.39,47,455,55.76,481,77.42,507.09,99,533,120.81c8.68,7.3,18.71,13.81,19.74,28.06-.27,8.86-6.28,15.55-13.49,21.58Q494,208.37,448.75,246.33c-9.13,7.65-17.92,15.76-27.54,22.73-13.12,9.49-28.63,4.61-35.11-10.27-4-9.15-1.3-19,7.85-26.78,19.16-16.34,38.49-32.48,57.71-48.76,3.37-2.86,6.49-6,9.73-9C460.94,173.37,460.48,172.53,460,171.68Z"/><path d="M59,468c.77-11.19,6.81-17.77,14.27-23.61,37.49-29.37,74.83-58.93,112.39-88.21,19.16-14.94,33.12-10.68,42,12.55-.14,10.22-5.09,17.76-13.33,24-16.81,12.69-33.31,25.79-49.86,38.82C161.09,434.22,158,437.37,153,442c5.55.75,8.52,1.5,11.49,1.51q142.31,0,284.6-.11c18.2,0,34.12-6.2,46.24-20.4,7.45-8.73,10.84-19,11-30.36.11-10.54-.18-21.08.12-31.62.41-14.29,8.47-23.49,20.94-24.49,12.11-1,23.62,7.28,24.81,20.78,2.34,26.49,3.55,53.27-9.4,78-16.37,31.26-43.53,47.36-77.38,53-10.31,1.73-21,1.91-31.48,1.93q-132.68.22-265.36.09H154c-.38,1-.76,1.94-1.13,2.92,3.62,3.19,7.13,6.52,10.89,9.54,15.7,12.63,31.51,25.12,47.2,37.77A87.25,87.25,0,0,1,221,549.85c8.56,9.51,8.81,20.58,1,29.81-7.56,8.91-19.85,11.63-29.68,4.86-12.41-8.56-24-18.3-35.78-27.8-27.78-22.45-55.31-45.21-83.24-67.48C66.16,483.55,60.89,477.2,59,468Z"/></svg>