<?xml version="1.0" encoding="UTF-8"?>
<svg id="Layer_2" data-name="Layer 2" xmlns="http://www.w3.org/2000/svg" xmlns:xlink="http://www.w3.org/1999/xlink" viewBox="0 0 1307.380024038599913 756.656374884543766">
  <defs>
    <linearGradient id="linear-gradient" x1="407.228261309711343" y1="-2927.741629662242303" x2="1060.328219444218576" y2="-3042.741628064658471" gradientTransform="translate(-18.574159719639297 3363.997731540114728) rotate(-1.700000018853809)" gradientUnits="userSpaceOnUse">
      <stop offset="0" stop-color="#47546b"/>
      <stop offset=".474860335195531" stop-color="#435065"/>
      <stop offset=".761452531015407" stop-color="#283744"/>
      <stop offset="1" stop-color="#223445"/>
    </linearGradient>
    <linearGradient id="linear-gradient-2" x1="257.299911650417016" y1="360.135339969616325" x2="977.614701507299287" y2="360.135339969616325" gradientUnits="userSpaceOnUse">
      <stop offset="0" stop-color="#47546b"/>
      <stop offset="1" stop-color="#1f2f49"/>
    </linearGradient>
    <linearGradient id="linear-gradient-3" x1="0" y1="425.565778297423094" x2="1245.19986567034266" y2="425.565778297423094" gradientUnits="userSpaceOnUse">
      <stop offset=".175977653631285" stop-color="#435065"/>
      <stop offset="1" stop-color="#222f48"/>
    </linearGradient>
    <linearGradient id="linear-gradient-4" x1="333.080971333746675" y1="704.896876695980609" x2="558.681007954845882" y2="704.896876695980609" gradientTransform="translate(1256.421486780630403 -762.319381538381094) rotate(38.400000870214399) scale(1.100000024461787)" gradientUnits="userSpaceOnUse">
      <stop offset=".027932960893855" stop-color="#435065"/>
      <stop offset=".621787726546133" stop-color="#283744"/>
      <stop offset="1" stop-color="#223445"/>
    </linearGradient>
  </defs>
  <g id="Layer_2-2" data-name="Layer 2">
    <g id="Layer_2-2" data-name="Layer 2-2">
      <path d="M976.985264396254024,370.08534959948156c3.29998779296875-122.899993896484375-56.5999755859375-244.300003051757812-168.20001220703125-314.399993896484375C640.685276603285274-50.014645059942268,418.685276603285274.685353259206749,312.985264396254024,168.785346547723748c-105.699996948242188,168.199996948242188-55,390.100021362304688,113.100006103515625,495.799972534179688,168.199981689453125,105.70001220703125,390.100006103515625,55,495.800018310546875-113.0999755859375,35.5-56.5,53.4000244140625-119.20001220703125,55-181.399993896484375" style="fill: url(#linear-gradient); stroke: url(#linear-gradient-2); stroke-miterlimit: 10;"/>
      <path d="M1082.685215568129024,130.985358754754998c2.5999755859375.399993896484375,5.199951171875.800003051757812,7.800048828125,1.300003051757812,1.300048828125.199996948242188,2.5999755859375.5,3.9000244140625.699996948242188.5999755859375,0,1.300048828125.199996948242188,1.9000244140625.399993896484375,1.9000244140625.399993896484375,3.800048828125.800003051757812,5.699951171875,1.199996948242188,1.300048828125.300003051757812,2.5.600006103515625,3.699951171875.800003051757812,3.699951171875.899993896484375,7.300048828125,1.800003051757812,10.800048828125,2.800003051757812,1.800048828125.5,3.5,1,5.199951171875,1.600006103515625,1.0999755859375.399993896484375,2.300048828125.699996948242188,3.4000244140625,1.100006103515625,6.0999755859375,2.100006103515625,11.800048828125,4.5,16.9000244140625,7.300003051757812.9000244140625.5,1.800048828125,1,2.699951171875,1.5,3.5999755859375,2.100006103515625,6.800048828125,4.300003051757812,9.699951171875,6.800003051757812.699951171875.600006103515625,1.4000244140625,1.199996948242188,2.0999755859375,1.899993896484375,3.4000244140625,3.199996948242188,6.0999755859375,6.699996948242188,8.199951171875,10.5.4000244140625.800003051757812.800048828125,1.5,1.0999755859375,2.300003051757812,3.4000244140625,7.5,4.0999755859375,16.300003051757812,1.5,26.5-.4000244140625,1.600006103515625-.9000244140625,3.300003051757812-1.5,5-2.5,7.300003051757812-6.699951171875,15.300003051757812-12.800048828125,24.100006103515625-.9000244140625,1.399993896484375-1.9000244140625,2.699996948242188-2.9000244140625,4.100006103515625-5.5999755859375,7.600006103515625-12.5999755859375,15.800003051757812-21.0999755859375,24.600006103515625-1.5,1.599990844726562-3.0999755859375,3.199996948242188-4.800048828125,4.900009155273438-54.199951171875,54.100006103515625-163.79998779296875,130.100006103515625-359.79998779296875,236.899993896484375-343.100006103515625,187-547.20001220703125,228.79998779296875-648,202.20001220703125-31.300003051757812-8.20001220703125-51.599998474121094-22.9000244140625-62.299999237060547-41.4000244140625-10.100002288818359-17.4000244140625-11.700000762939453-39.4000244140625-5.900001525878906-63.20001220703125,30.899997711181641-126.20001220703125,129.399997711181641-168,132.200000762939453-192.399993896484375-81.900001525878906,54.20001220703125-140.5,120.399993896484375-155.899993896484375,183.199981689453125-8.100000381469727,32.79998779296875-5.399999618530273,63.79998779296875,9.5,89.5999755859375,14.200000762939453,24.70001220703125,39.599998474121094,43.70001220703125,77.400001525878906,53.70001220703125,105.099998474121094,27.5,314.499992370605469-14.0999755859375,662.999992370605469-204.0999755859375,38.20001220703125-20.79998779296875,73.5-40.600006103515625,106.0999755859375-59.399993896484375,5.9000244140625-3.399993896484375,11.70001220703125-6.79998779296875,17.5-10.20001220703125,37.29998779296875-21.79998779296875,70.79998779296875-42.20001220703125,100.79998779296875-61.29998779296875,6.9000244140625-4.399993896484375,13.70001220703125-8.79998779296875,20.20001220703125-13,28.60003662109375-16.899993896484375,29.60003662109375-19.600006103515625,42.89996337890625-28.79998779296875,3.800048828125-2.600006103515625,7.5-5.29998779296875,11.199951171875-7.79998779296875,5.5-3.899993896484375,10.800048828125-7.70001220703125,15.9000244140625-11.399993896484375,5.0999755859375-3.79998779296875,10.0999755859375-7.399993896484375,14.9000244140625-11.100006103515625,1.5999755859375-1.20001220703125,3.199951171875-2.399993896484375,4.800048828125-3.600006103515625,9.4000244140625-7.20001220703125,18.199951171875-14.100006103515625,26.300048828125-20.79998779296875,1.4000244140625-1.100006103515625,2.699951171875-2.20001220703125,4-3.29998779296875,2.5999755859375-2.20001220703125,5.199951171875-4.399993896484375,7.699951171875-6.5,1.300048828125-1.100006103515625,2.5-2.100006103515625,3.699951171875-3.20001220703125,12.199951171875-10.600006103515625,22.699951171875-20.600006103515625,31.699951171875-29.899993896484375,3.5999755859375-3.699996948242188,6.9000244140625-7.399993896484375,10-10.899993896484375,1.5999755859375-1.800003051757812,3-3.5,4.5-5.199996948242188l-.199951171875.199996948242188h0c1.4000244140625-1.699996948242188,2.800048828125-3.399993896484375,4.0999755859375-5.100006103515625,2-2.5,3.800048828125-5,5.5-7.399993896484375,2.300048828125-3.199996948242188,4.4000244140625-6.300003051757812,6.199951171875-9.399993896484375,3.300048828125-5.300003051757812,5.9000244140625-10.300003051757812,7.9000244140625-15.100006103515625,1.699951171875-4.100006103515625,3-8,3.800048828125-11.699996948242188,1-4.300003051757812,1.4000244140625-8.399993896484375,1.300048828125-12.300003051757812v-3.199996948242188c-.800048828125-7.5-3.5999755859375-14-8.0999755859375-19.699996948242188-.5999755859375-.800003051757812-1.300048828125-1.600006103515625-2-2.399993896484375-4.9000244140625-5.5-11.5-10.199996948242188-19.300048828125-14.199996948242188-.5999755859375-.300003051757812-1.0999755859375-.600006103515625-1.699951171875-.800003051757812-1.0999755859375-.600006103515625-2.300048828125-1.100006103515625-3.5-1.600006103515625-.5999755859375-.300003051757812-1.199951171875-.5-1.800048828125-.800003051757812-4.800048828125-2.100006103515625-10-3.899993896484375-15.5-5.5-.699951171875-.199996948242188-1.4000244140625-.399993896484375-2.0999755859375-.600006103515625-3.5-1-7.0999755859375-1.900001525878906-10.699951171875-2.800003051757812-.699951171875-.199996948242188-1.5-.300003051757812-2.199951171875-.5-2.199951171875-.5-4.5-1-6.800048828125-1.400001525878906-3.0999755859375-.599998474121094-6.199951171875-1.099998474121094-9.300048828125-1.599998474121094-4.699951171875-.800003051757812-9.5999755859375-1.400001525878906-14.4000244140625-2-1.4000244140625-.199996948242188-2.800048828125-.300003051757812-4.199951171875-.5l-9-.900001525878906c-3.9000244140625-.300003051757812-7.800048828125-.599998474121094-11.699951171875-.900001525878906-2.5-.199996948242188-5-.300003051757812-7.5999755859375-.400001525878906-1.699951171875,0-3.4000244140625-.199996948242188-5.0999755859375-.199996948242188s-3.4000244140625,0-5-.199996948242188c-8.4000244140625-.300003051757812-16.800048828125-.400001525878906-24.9000244140625-.400001525878906l-82.591681714335209-1.703264920210131s4.245283018868577,5.037735849056844,6.50943396225739,5.716981132068213l53.886792452842201,4.61320754717417,44.595479713298118,5.273070137452123.0001220703125-.000045776367188Z" style="fill: none; stroke: url(#linear-gradient-3); stroke-miterlimit: 10; stroke-width: 40px;"/>
      <path d="M1150.085239982191524,46.385352651239373c-67.199951171875,18.800003051757812-107.4000244140625,88.400009155273438-89.9000244140625,155.600006103515625,17.4000244140625,67.199996948242188,86,106.199996948242188,153.199951171875,87.400009155273438s107.4000244140625-88.399993896484375,89.9000244140625-155.600006103515625c-17.4000244140625-67.199996948242188-86-106.199996948242188-153.199951171875-87.400001525878906v-.000007629394531Z" style="fill: url(#linear-gradient-4); stroke-width: 0px;"/>
    </g>
  </g>
</svg>