<svg id="Layer_1" data-name="Layer 1" xmlns="http://www.w3.org/2000/svg" viewBox="0 0 72 72"><defs><style>.cls-1{fill:#0491b7;}</style></defs><path class="cls-1" d="M13.74,59.63c0-.06.08-.12.11-.19L28.31,24,34.73,8.22A.32.32,0,0,1,35.08,8c.53,0,1.05,0,1.58,0a.33.33,0,0,1,.36.26L44.14,25.7l14,34.35c0,.09.07.18.11.3l-.29,0H55.5a.36.36,0,0,1-.4-.28q-2-5-4.1-10.06l-.12-.27c-.83.26-1.62.53-2.43.76a39.66,39.66,0,0,1-5.16,1.16,40.75,40.75,0,0,1-7.15.5c-1.34,0-2.67-.16-4-.3A37.35,37.35,0,0,1,23.73,50c-.21-.07-.28,0-.36.19q-2,5-4,9.92a.4.4,0,0,1-.44.3H13.74ZM24.2,48.1a39.12,39.12,0,0,0,26-.14L37.21,16.21Z"/></svg>