<svg id="Layer_1" data-name="Layer 1" xmlns="http://www.w3.org/2000/svg" xmlns:xlink="http://www.w3.org/1999/xlink" viewBox="0 0 72 72"><defs><style>.cls-1{fill:url(#linear-gradient);}</style><linearGradient id="linear-gradient" x1="36" y1="67.4" x2="36" y2="4.6" gradientUnits="userSpaceOnUse"><stop offset="0" stop-color="#6469b0"/><stop offset="1" stop-color="#a9a5d2"/></linearGradient></defs><path class="cls-1" d="M38.86,4.6c0,1.49-.08,3-.07,4.47,0,1,.05,1,1.18,1,2.54,0,5.07,0,7.6,0,.4,0,.8,0,1.2,0,.57,0,.86.18.85.77,0,2,0,4,0,6,0,.71-.32.86-1,.86-2.6,0-5.2,0-7.8,0-2.21,0-2.21,0-2.09,2.15,0,1,0,1.05,1.18,1.07,1.6,0,3.2,0,4.8,0,.57,0,.85.16.85.76,0,2,0,4,0,6,0,.73-.37.84-1,.84-1.6,0-3.2,0-4.8,0-.76,0-1.07.28-1.06,1,0,1.81,0,3.62,0,5.44,0,.87.37,1.26,1.18,1.51a16.12,16.12,0,0,1,6.65,4.12,14.62,14.62,0,0,1,3.32,5,4.24,4.24,0,0,0,1.55,1.92,26.53,26.53,0,0,1,5.64,5.19,7.12,7.12,0,0,1,1.86,4.59,3.49,3.49,0,0,1-2.15,3.42,11.11,11.11,0,0,1-3.23.9,29.31,29.31,0,0,1-4.59,0,3.12,3.12,0,0,0-2.64,1,14.88,14.88,0,0,1-7.69,4.21c-.72.13-1.45.18-2.16.31l-.86.17a15.22,15.22,0,0,1-1.55-.06c-.59,0-.83-.08-1.25-.12a15.72,15.72,0,0,1-12.14-7.78A14.91,14.91,0,0,1,18.57,50,1.92,1.92,0,0,0,18,48.05,17.43,17.43,0,0,1,13.24,42a3.78,3.78,0,0,1,0-2.33,5.24,5.24,0,0,1,3.43-3,17.21,17.21,0,0,1,3.12-.51,23.78,23.78,0,0,1,6.51.61,5.36,5.36,0,0,0,3.31-.14c1.25-.54,1.31-.47,1.31-1.78q0-15.12-.07-30.24Zm4.58,47a20.81,20.81,0,0,0-.3-2.1,8.74,8.74,0,0,0-16.77.15c-.26,1.2-.23,1.38.72,1.94a70.09,70.09,0,0,0,13,5.76,1.13,1.13,0,0,0,1.37-.4A7.67,7.67,0,0,0,43.44,51.61Zm8-1c-.36,1.94-.61,3.65-1,5.32a24.68,24.68,0,0,1-1.07,2.69c-.16.41-.08.82.47.82,1.72,0,3.46.28,5.13-.33s2-1.43,1.35-3a9.2,9.2,0,0,0-.89-1.51A20.25,20.25,0,0,0,51.39,50.6ZM24.91,39c-1-.19-1.73-.36-2.45-.45a12.61,12.61,0,0,0-4.93.34c-1.7.46-2.29,1.57-1.46,3.06a22,22,0,0,0,2.52,3.44c.6.71.81.63,1.24-.2A16.18,16.18,0,0,1,24.91,39ZM38,59.24c-1.89-.78-3.72-1.5-5.52-2.29s-3.63-1.69-5.59-2.61A8.09,8.09,0,0,0,38,59.24Z"/></svg>