<svg id="Layer_1" data-name="Layer 1" xmlns="http://www.w3.org/2000/svg" viewBox="0 0 30 30"><defs><style>.cls-1,.cls-2{fill:#36b04a;}.cls-1{fill-opacity:0.15;}</style></defs><rect class="cls-1" width="30" height="30" rx="5"/><path class="cls-2" d="M23.2,5,5,23.2,6.8,25,25,6.8Z"/><path class="cls-2" d="M10.33,5H7.67A2.66,2.66,0,0,0,5,7.67v2.66A2.66,2.66,0,0,0,7.67,13h2.66A2.66,2.66,0,0,0,13,10.33V7.67A2.66,2.66,0,0,0,10.33,5Z"/><path class="cls-2" d="M22.33,17H19.67A2.66,2.66,0,0,0,17,19.67v2.66A2.66,2.66,0,0,0,19.67,25h2.66A2.66,2.66,0,0,0,25,22.33V19.67A2.66,2.66,0,0,0,22.33,17Z"/></svg>