<svg id="Layer_1" data-name="Layer 1" xmlns="http://www.w3.org/2000/svg" viewBox="0 0 450 300"><defs><style>.cls-1{fill:#2775c8;}.cls-2{fill:#fdfefe;}.cls-3{fill:#24a338;}.cls-4{fill:#fff;}.cls-5{fill:#c37024;}</style></defs><circle class="cls-1" cx="301.37" cy="149.97" r="149"/><path class="cls-2" d="M310.41,88c0,2.08,0,4.16,0,6.25,0,1.58.23,1.8,1.75,2.25,2.07.61,4.17,1.14,6.18,1.92,10.55,4.14,16.81,11.93,19.18,22.93a4.3,4.3,0,0,1-4.13,5.25c-3.54.09-7.09.06-10.63,0a4.26,4.26,0,0,1-3.82-2.48c-.71-1.36-1.31-2.78-2-4.17-2.61-5.62-7.05-8.46-13.2-8.78a42.07,42.07,0,0,0-12.57.7c-5.36,1.35-8.86,4.57-9.85,10.16a15.4,15.4,0,0,0,1,8.51,9.23,9.23,0,0,0,4.05,4.39,30.67,30.67,0,0,0,10.49,3.67c4.81.87,9.64,1.57,14.45,2.47a57.48,57.48,0,0,1,15.74,5.07c7.93,4.08,12.47,10.6,13.77,19.4a34.73,34.73,0,0,1-1.27,16.72c-2.78,7.95-8.11,13.73-15.38,17.8a43.94,43.94,0,0,1-11,4.1c-2.54.63-2.73.93-2.74,3.57,0,3.78,0,7.57-.08,11.35a4.25,4.25,0,0,1-4.24,4.44,49.42,49.42,0,0,1-10.6,0,4.13,4.13,0,0,1-3.95-4.11c-.15-2.72-.11-5.45-.13-8.18,0-1.65.06-3.29,0-4.94,0-1.27-.52-1.59-2-2a78.26,78.26,0,0,1-9.27-2.54c-11.52-4.44-18.31-12.94-20.77-25-.09-.42-.16-.85-.24-1.27-.57-3,1.15-5.41,4.23-5.52,3.7-.14,7.41-.11,11.11,0,2.37.06,3.8,1.46,4.53,3.94a40.25,40.25,0,0,0,1.75,5.45,15.91,15.91,0,0,0,11.32,9.13,34.56,34.56,0,0,0,15.83.38c4.81-1.12,9-3.35,11.48-7.86s3.21-9.49.51-14.38a12.8,12.8,0,0,0-6.49-5.49,47.35,47.35,0,0,0-11.31-3.06c-6.34-1-12.7-2-18.85-3.9a36.75,36.75,0,0,1-11.76-5.65,24.14,24.14,0,0,1-9.2-15.16,33.07,33.07,0,0,1,1.15-17.5c2.38-6.72,7-11.56,13-15.2a35.88,35.88,0,0,1,12.38-4.58l.56-.12a2.23,2.23,0,0,0,2.08-2.6q0-5.39-.05-10.78a9.55,9.55,0,0,1,.13-1.69c.41-2.22,1.68-3.66,3.94-3.76,3.63-.17,7.29-.18,10.93,0a4.18,4.18,0,0,1,3.9,4.25c.09,2.19,0,4.38,0,6.57Z"/><path class="cls-2" d="M410.93,151.1A107,107,0,0,1,400,198.25a109.72,109.72,0,0,1-65.38,56.68,7.58,7.58,0,0,1-1.33.32c-3,.38-5.14-1.23-5.27-4.21-.15-3.45-.12-6.92,0-10.37.11-2.44,1.61-4,3.82-5,3-1.29,6-2.46,8.91-3.85a88,88,0,0,0,22.47-15.6c14.47-13.55,23.16-30.27,27-49.61a84.94,84.94,0,0,0,.91-26.53,91,91,0,0,0-57.87-74.62c-.46-.18-.9-.37-1.34-.57a6.53,6.53,0,0,1-4-6.38c0-2.7,0-5.41,0-8.11a8.06,8.06,0,0,1,.13-1.29c.6-3,2.83-4.5,5.75-3.61a101.09,101.09,0,0,1,10.42,3.76,109.93,109.93,0,0,1,32.29,21,111.63,111.63,0,0,1,24,33.07A96.42,96.42,0,0,1,409,129.66a139,139,0,0,1,1.9,18.77C411,149.32,410.93,150.21,410.93,151.1Z"/><path class="cls-2" d="M190.91,149.52a106.09,106.09,0,0,1,12.3-49.8A106.7,106.7,0,0,1,248.8,53.49a130.41,130.41,0,0,1,17.85-7.61,9.25,9.25,0,0,1,3.82-.33,3.62,3.62,0,0,1,3.33,3.52c.1,3.56.14,7.13,0,10.68a5.8,5.8,0,0,1-3.69,5.06c-2.11,1-4.32,1.7-6.41,2.7-23.84,11.28-40.43,29.11-48.88,54.25a86.14,86.14,0,0,0-4.68,31.39c.87,20.52,7.61,38.84,20.67,54.77a90.25,90.25,0,0,0,37.84,27.24,14.18,14.18,0,0,1,2.12,1,5.82,5.82,0,0,1,3,4.89c.14,3.26.19,6.54,0,9.8s-2.69,5.23-5.9,4.22a118.68,118.68,0,0,1-12-4.44,108.44,108.44,0,0,1-31.41-21.18c-15.58-14.79-25.5-32.84-30.67-53.6a108.49,108.49,0,0,1-3-23.34C190.88,151.52,190.91,150.52,190.91,149.52Z"/><circle class="cls-3" cx="149.01" cy="150.32" r="149"/><path d="M65.8,131.45a41.66,41.66,0,0,1-10.71-19.18c-2.38-9.47.17-17.86,6.33-25.26a46.41,46.41,0,0,1,11.7-9.65l1.12-.69c-1.07-2.2-2.1-4.37-3.16-6.52a18.45,18.45,0,0,1-2.15-9.24,15.46,15.46,0,0,1,6.14-11.37,23.83,23.83,0,0,1,7.86-4.18l42.75-13.79a52.59,52.59,0,0,1,8.25-2.21,15.84,15.84,0,0,1,18,13.31l.06.49c.38,2.75.88,5.49,1.3,8.15,2.31,0,4.53-.1,6.73,0a48.6,48.6,0,0,1,14.29,2.55A24.82,24.82,0,0,1,190.4,70.93a51.62,51.62,0,0,1,2.3,15.46c0,1.57-.24,3.14-.37,4.67,2.11,1,4.22,2,6.28,3.08a37.47,37.47,0,0,1,18.75,21.93c2.36,6.94,4.57,13.94,6.8,20.92q9.12,28.59,18.19,57.2a33.67,33.67,0,0,1,.34,18.3c-2.41,9.94-7.25,18.46-15.21,25A50.51,50.51,0,0,1,211,246.18c-10.39,3.45-20.83,6.75-31.25,10.09q-19,6.11-38.06,12.15a63.38,63.38,0,0,1-14.23,3,39.27,39.27,0,0,1-10.54-.79,46.18,46.18,0,0,1-13.12-4.71,40.9,40.9,0,0,1-20.38-25c-6.37-20.51-13-40.92-19.63-61.36a146.45,146.45,0,0,1-4.57-15.94A40.33,40.33,0,0,1,65.47,132C65.57,131.84,65.66,131.67,65.8,131.45Zm22-4.71c-.69.93-1.26,1.82-1.94,2.62-2.29,2.7-4.71,5.3-6.89,8.08-6.46,8.21-8.45,17.31-5.13,27.38,2.32,7.07,4.68,14.14,7,21.23,5.71,17.8,11.35,35.62,17.08,53.41a20.52,20.52,0,0,0,2.57,5.36,28.61,28.61,0,0,0,8.37,7.66c8.45,5.24,17.44,6,26.81,3.09,9.08-2.85,18.13-5.81,27.19-8.71l42.47-13.57a42.89,42.89,0,0,0,11.29-5c6.48-4.44,10.18-10.73,12.18-18.17a20.29,20.29,0,0,0,.08-11.88q-12.39-38.74-24.7-77.52a22.42,22.42,0,0,0-6.59-10.23,36.33,36.33,0,0,0-15.82-7.86c-2.81-.69-5.64-1.32-8.46-2-.81-.19-1.53-.72-1.48-1.47.08-1-.21-2.34,1-3,4.44-2.4,6.17-6.32,5.74-11.12a80.52,80.52,0,0,0-1.78-10,10.59,10.59,0,0,0-8-8.19,39.49,39.49,0,0,0-16.89-1c-1.19.18-2.38.39-3.56.65s-1.53.82-1.16,2l.39,1.18c.68,2.08.68,2.08,2.92,1.83a7.2,7.2,0,0,1,4.2.47c.94.48,1.14,1.3.37,2a10.85,10.85,0,0,1-2.61,2c-7.22,3.3-14.39,6.72-21.73,9.73A156.55,156.55,0,0,1,98,94.72c-3.41.59-6.84,1.09-10.28,1.53a6,6,0,0,1-2.4-.41c-.8-.25-1.08-.89-.48-1.55A16.93,16.93,0,0,1,87.3,92c.84-.63,1.83-1,2.71-1.62.24-.16.52-.64.44-.85-.5-1.41-1.09-2.78-1.67-4.22-.31.11-.52.17-.72.25a55.58,55.58,0,0,0-9.74,5.21,30.91,30.91,0,0,0-7.18,6.56c-2.6,3.42-3.81,7.21-2.55,11.45A30.32,30.32,0,0,0,75.28,121a9.84,9.84,0,0,0,8,3.45,3.76,3.76,0,0,1,3.54,1.47A8.39,8.39,0,0,0,87.75,126.74Zm48.36-83.38c-.58.14-1.18.24-1.74.43L85.24,59.68a6.58,6.58,0,0,0-1.33.59c-1.1.68-1.24,1.2-.67,2.34L90,76.36c1.84,3.7,3.67,7.41,5.52,11.12A2.42,2.42,0,0,0,98.41,89c1.91-.38,3.82-.83,5.7-1.33,11.7-3.14,23.14-7.06,34.54-11.13,1.29-.46,2.91-.72,3-2.61,0-.06.1-.11.16-.16a1.82,1.82,0,0,0,.5-2c-.82-4.74-1.59-9.48-2.38-14.22q-1-6.27-2.12-12.55C137.63,43.72,137.28,43.45,136.11,43.36Z"/><path class="cls-4" d="M198,136.21l-1.27.91c-3.06,2.14-6.08,4.32-9.17,6.41-9.75,6.57-20.56,8.63-32.1,7.26-4.93-.59-9.82-1.45-14.75-2a43.29,43.29,0,0,0-15.59.86c-2.48.62-4.91,1.47-7.41,2a5.61,5.61,0,0,1-5.78-2.51,4.72,4.72,0,0,1-.27-5.6,9.33,9.33,0,1,0-17.43-5.18,9.08,9.08,0,0,0,5.35,8.84,5.06,5.06,0,0,1,2.85,2.87,9,9,0,0,1-2.92,9.13c-1.17.84-2.37,1.62-3.51,2.49a22.74,22.74,0,0,0-7.17,8.14,9.15,9.15,0,0,0-.56,7.28c3.17,9.17,6.11,18.42,9.2,27.61,2.33,7,4.67,13.9,7.15,20.79a34.91,34.91,0,0,0,7,12.18,20.29,20.29,0,0,0,16,7,62.7,62.7,0,0,0,16.76-2.8q19.29-6,38.51-12.18c7-2.21,13.91-4.44,20.47-7.72,6.25-3.11,10.62-7.81,12.47-14.65a28.91,28.91,0,0,0-.27-14.86c-1.34-5.24-2.93-10.42-4.56-15.58-3.58-11.4-7.26-22.78-10.91-34.16C199.44,140.63,198.74,138.53,198,136.21Zm-17-.84a9.33,9.33,0,0,0-9.29-9.37h0a9.45,9.45,0,0,0-9.39,9.34,9.35,9.35,0,0,0,18.69,0ZM124.67,116h0c1.28-.08,2.56-.18,3.84-.24a52.55,52.55,0,0,0,23.67-6.64c4.46-2.5,8.77-5.27,13.14-7.92.16-.1.39-.18.45-.33a1.09,1.09,0,0,0,.13-.79c-.09-.16-.48-.22-.74-.24s-.34.13-.52.2q-17.8,7.26-36.15,13.06c-1.79.57-3.59,1.12-5.37,1.73-.27.09-.45.48-.67.74a3.34,3.34,0,0,0,.87.47,6.56,6.56,0,0,0,1.33,0Zm23.74,8a5.56,5.56,0,1,0,5.59,5.53v-.06a5.58,5.58,0,0,0-5.61-5.47Z"/><path class="cls-4" d="M228.7,210.07c-2,7.44-5.7,13.73-12.17,18.16a42.26,42.26,0,0,1-11.31,5.06q-21.21,6.83-42.45,13.58c-9.08,2.89-18.12,5.85-27.2,8.7-9.38,2.94-18.37,2.15-26.81-3.09a28.61,28.61,0,0,1-8.37-7.66,20.46,20.46,0,0,1-2.57-5.35c-5.74-17.79-11.37-35.62-17.08-53.42-2.27-7.09-4.63-14.16-7-21.23-3.31-10.07-1.32-19.17,5.14-27.38,2.18-2.79,4.6-5.38,6.89-8.08.68-.8,1.25-1.69,1.94-2.62a10.65,10.65,0,0,1-.91-.87,3.74,3.74,0,0,0-3.49-1.51,9.82,9.82,0,0,1-8-3.44,30.32,30.32,0,0,1-6.69-12.15c-1.26-4.24,0-8,2.55-11.45a30.86,30.86,0,0,1,7.14-6.54A55.49,55.49,0,0,1,88,85.59l.71-.25c.59,1.44,1.18,2.81,1.68,4.22.08.21-.2.69-.44.85-.88.58-1.87,1-2.71,1.61a18.78,18.78,0,0,0-2.45,2.27c-.6.66-.32,1.3.48,1.54a6,6,0,0,0,2.4.42c3.44-.43,6.86-.93,10.28-1.53a156.06,156.06,0,0,0,32.66-9.11c7.35-3,14.53-6.42,21.75-9.72a11,11,0,0,0,2.6-2c.76-.68.57-1.5-.37-2a7.2,7.2,0,0,0-4.2-.47c-2.24.25-2.24.26-2.93-1.83-.12-.39-.25-.79-.38-1.18-.37-1.16-.08-1.7,1.16-2s2.37-.47,3.56-.64a39.38,39.38,0,0,1,16.9,1c4.21,1.22,7,3.86,8,8.19a78.71,78.71,0,0,1,1.78,10c.43,4.8-1.3,8.71-5.74,11.12-1.24.68-1,2-1,3-.06.75.67,1.28,1.48,1.47,2.82.66,5.65,1.29,8.46,2a36.36,36.36,0,0,1,15.83,7.86,22.37,22.37,0,0,1,6.58,10.22q12.36,38.76,24.71,77.52A20.43,20.43,0,0,1,228.7,210.07Z"/><path class="cls-5" d="M136.11,43.36c1.17.09,1.52.36,1.73,1.56q1.08,6.27,2.12,12.55c.79,4.74,1.56,9.48,2.38,14.22.14.8.19,1.49-.5,2a.22.22,0,0,0-.16.16c-.12,1.89-1.74,2.15-3,2.61-11.4,4.07-22.84,8-34.54,11.13-1.88.5-3.79,1-5.7,1.33a2.41,2.41,0,0,1-2.84-1.47c-1.88-3.67-3.71-7.38-5.59-11.09L83.24,62.61c-.57-1.14-.43-1.66.67-2.34a6.58,6.58,0,0,1,1.33-.59l49.13-15.89C134.93,43.6,135.53,43.5,136.11,43.36Z"/><path class="cls-3" d="M198,136.21c.76,2.32,1.46,4.42,2.13,6.53,3.65,11.38,7.33,22.76,10.91,34.16,1.63,5.16,3.22,10.34,4.56,15.58a28.91,28.91,0,0,1,.27,14.86c-1.85,6.84-6.22,11.54-12.47,14.65-6.56,3.28-13.51,5.51-20.47,7.72q-19.24,6.1-38.51,12.18a62.7,62.7,0,0,1-16.76,2.8,20.29,20.29,0,0,1-16-7,34.91,34.91,0,0,1-7-12.18c-2.48-6.89-4.82-13.84-7.15-20.79-3.09-9.19-6-18.44-9.2-27.61a9.15,9.15,0,0,1,.56-7.28A22.75,22.75,0,0,1,96,161.71c1.14-.87,2.34-1.65,3.51-2.49a9,9,0,0,0,2.92-9.13,5.06,5.06,0,0,0-2.85-2.87,9.08,9.08,0,0,1-5.35-8.86,9.33,9.33,0,0,1,18.64.89,9.23,9.23,0,0,1-1.24,4.22,4.72,4.72,0,0,0,.27,5.6,5.61,5.61,0,0,0,5.78,2.51c2.5-.49,4.93-1.34,7.41-2a43.29,43.29,0,0,1,15.59-.86c4.93.56,9.82,1.42,14.75,2,11.54,1.37,22.35-.69,32.1-7.26,3.09-2.09,6.11-4.27,9.17-6.41Zm-51.77,70.25a25.13,25.13,0,0,0-4.66-13.63,14.25,14.25,0,0,0-6.22-5.25,6.6,6.6,0,0,0-8.32,2.53,12,12,0,0,0-2,5.7A24.6,24.6,0,0,0,129.77,213a14,14,0,0,0,5.52,4.73,6.69,6.69,0,0,0,9.08-2.71,1.59,1.59,0,0,0,.15-.29C145.83,212.36,146.23,209.84,146.24,206.46Zm40.94-12.85a25.26,25.26,0,0,0-4.62-13.8,14.57,14.57,0,0,0-5.89-5.14,6.71,6.71,0,0,0-9,2.89l-.09.18a15.11,15.11,0,0,0-1.72,7.63,25,25,0,0,0,3.19,12c1.71,3.07,3.86,5.76,7.14,7.32a6.72,6.72,0,0,0,9.13-2.7c.06-.12.13-.24.18-.36A16.13,16.13,0,0,0,187.18,193.61Z"/><path class="cls-3" d="M181,135.59a9.35,9.35,0,0,1-18.69,0,9.45,9.45,0,0,1,9.39-9.34A9.33,9.33,0,0,1,181,135.59Z"/><path class="cls-3" d="M148.83,124.41a5.56,5.56,0,0,1,.47,11.11h-.47a5.56,5.56,0,0,1,0-11.11Z"/><path class="cls-4" d="M146.24,206.46c0,3.38-.41,5.93-1.7,8.26a6.69,6.69,0,0,1-8.93,3.15l-.3-.15a14,14,0,0,1-5.52-4.73,24.6,24.6,0,0,1-4.73-17.23,12,12,0,0,1,2-5.7,6.6,6.6,0,0,1,8.32-2.53,14.25,14.25,0,0,1,6.22,5.25A25,25,0,0,1,146.24,206.46Z"/><path class="cls-4" d="M187.18,193.61a16.06,16.06,0,0,1-1.68,8,6.71,6.71,0,0,1-8.94,3.24c-.13,0-.25-.12-.37-.18-3.28-1.56-5.43-4.25-7.14-7.32a25,25,0,0,1-3.23-12,15.11,15.11,0,0,1,1.72-7.63,6.72,6.72,0,0,1,9-3.16l.18.09a14.57,14.57,0,0,1,5.89,5.14A25.22,25.22,0,0,1,187.18,193.61Z"/></svg>