<svg id="Layer_1" data-name="Layer 1" xmlns="http://www.w3.org/2000/svg" viewBox="0 0 30 30"><defs><style>.cls-1,.cls-2{fill:#ff8a00;}.cls-1{fill-opacity:0.15;}</style></defs><rect class="cls-1" width="30" height="30" rx="5"/><path class="cls-2" d="M25,6.8,23.2,5,20.77,7.43A9.52,9.52,0,0,0,7.43,20.77L5,23.2,6.8,25l2.3-2.31a10.09,10.09,0,0,0,7.69,1.64,9.75,9.75,0,0,0,6.53-4.69,9.44,9.44,0,0,0,1.21-4.53V15a9.52,9.52,0,0,0-2-5.75Zm-4.17,12a7.12,7.12,0,0,1-2.91,2.47,7.43,7.43,0,0,1-4.13.62,7.34,7.34,0,0,1-2.86-1.06L19.2,12.6l1-1,.52-.49A7,7,0,0,1,22,15.07,6.78,6.78,0,0,1,20.83,18.84Z"/></svg>