<svg id="Layer_1" data-name="Layer 1" xmlns="http://www.w3.org/2000/svg" viewBox="0 0 30 30"><defs><style>.cls-1,.cls-2{fill:#00c4ef;}.cls-1{fill-opacity:0.15;}</style></defs><path class="cls-1" d="M5.17,0H24.83A5.09,5.09,0,0,1,30,5V25a5.09,5.09,0,0,1-5.17,5H5.17A5.09,5.09,0,0,1,0,25V5A5.09,5.09,0,0,1,5.17,0Z"/><path class="cls-2" d="M5.17,23.2,7,25l2.51-2.43a10.1,10.1,0,0,0,12.94-.84,9.29,9.29,0,0,0,.87-12.5L25.86,6.8,24,5,21.62,7.31a10.52,10.52,0,0,0-3.81-1.6,10.73,10.73,0,0,0-4.15,0A10.17,10.17,0,0,0,9.77,7.31a9.9,9.9,0,0,0-2.86,3.05,9.26,9.26,0,0,0-1.25,4.53V15a9.29,9.29,0,0,0,2.11,5.75Zm4.31-12a7.36,7.36,0,0,1,3-2.47,7.9,7.9,0,0,1,4.27-.62,7.79,7.79,0,0,1,3,1.06L11.17,17.4l-1,1-.53.49a6.79,6.79,0,0,1-1.31-3.94A6.66,6.66,0,0,1,9.48,11.16Z"/></svg>