<svg id="Layer_1" data-name="Layer 1" xmlns="http://www.w3.org/2000/svg" viewBox="0 0 250 250"><defs><style>.cls-1{fill:#fff;}</style></defs><path class="cls-1" d="M124.78,11.61c12.92.68,22.45,6.12,27.21,17.69,4.76,10.88,3.4,21.77-4.08,31.29-2,2-2,3.4-.68,6.12,21.09,36.06,42.86,72.8,64,108.86,1.36,2,2.72,2.72,5.44,2.72,13.61-1.36,25.17,6.8,30.62,19.73,4.76,12.24,0,26.53-10.21,34-11.57,8.16-25.85,8.16-36.74-.69-5.44-4.08-8.84-8.84-10.2-15-.68-2.72-2-3.4-4.08-3.4H64.91c-2.73,0-3.41.68-4.09,3.4a29.71,29.71,0,0,1-26.53,21.77c-12.93.68-25.17-6.81-29.93-17a31.16,31.16,0,0,1,4.08-34c6.12-7.48,15-10.88,24.49-10.2,2.72,0,4.08-.68,5.44-3.4L101.64,65.35c1.36-2,1.36-3.4-.68-6.12-13.6-17.69-6.12-42.18,15.65-47.62Zm0,191.85h59.86c3.41,0,4.77-.68,5.45-4.08,1.36-6.8,5.44-12.25,10.88-16.33,2.72-1.36,3.4-2.72,1.36-5.44-21.09-35.38-41.5-70.76-61.91-106.13-1.36-2-2.72-3.41-5.44-2-6.8,2.72-13.61,2.72-19.73,0-2.72-1.37-4.08-.68-5.44,2C89.4,106.85,68.31,142.23,47.9,177.61c-1.36,2.72-1.36,3.4,1.36,5.44a31.51,31.51,0,0,1,11.56,16.33c.68,3.4,2,4.76,6.13,4.76C85.32,203.46,105.05,203.46,124.78,203.46Zm20.4-161.24a20.54,20.54,0,0,0-19-21.77c-14.29-.68-21.77,10.89-22.46,20.41C103,52.43,112.53,62,124.09,62.63,135.66,62.63,145.18,53.79,145.18,42.22Zm93.89,165.32c0-12.24-8.84-21.09-21.09-21.09-11.57,0-20.41,8.85-21.09,20.41A21.19,21.19,0,0,0,218,228C230.23,228.63,239.07,219.11,239.07,207.54Zm-229.27,0a20.76,20.76,0,0,0,21.09,21.09A21.2,21.2,0,0,0,52,207.54c0-11.56-9.53-21.09-20.41-21.09C19.32,186.45,9.8,195.3,9.8,207.54Z"/><path class="cls-1" d="M125.45,130.66c21.09,0,39.46,8.85,53.07,25.86,2,2.72,2.72,5.44.68,7.48s-4.76,1.36-7.48-1.36c-5.45-5.44-11.57-10.2-17-15C154,147,153.35,147,152,147c0,.68.68,1.36.68,2,8.16,20.41-5.45,38.1-21.09,41.5-11.57,2.73-21.77-1.36-29.26-10.2s-9.52-19.05-5.44-29.94c.68-1.36.68-2.72,1.36-4.08l-4.08,2c-5.45,4.77-10.89,9.53-15.65,14.29-1.36,1.36-2.72,2.72-4.08,2.72s-3.4-.68-4.08-2a7.51,7.51,0,0,1,0-5.44c11.56-14.29,25.85-24.49,44.22-26.53,2.72,0,4.76-.69,7.48-.69Zm-1.36,51a20.76,20.76,0,0,0,21.09-21.09,21.19,21.19,0,0,0-21.09-21.09c-11.56,0-21.09,9.52-21.09,20.41C103.68,172.16,112.53,181.69,124.09,181.69Z"/></svg>