<svg id="Layer_1" data-name="Layer 1" xmlns="http://www.w3.org/2000/svg" viewBox="0 0 300 300"><defs><style>.cls-1,.cls-2{fill:#24a338;}.cls-1{opacity:0.15;}</style></defs><path class="cls-1" d="M135.73,199.53a47.13,47.13,0,0,1,8.75,25.52c0,6.25-.76,11-3.1,15.31a13.29,13.29,0,0,1-17.09,6,25.79,25.79,0,0,1-10.62-9c-6.9-9.65-10.08-20.39-8.89-32.27a22.65,22.65,0,0,1,4.11-11.23,12.74,12.74,0,0,1,15.21-4.2C129,191.69,132.72,195.28,135.73,199.53Z"/><path class="cls-1" d="M212.49,175.13A47.23,47.23,0,0,1,221.15,201c0,6-.81,10.63-3.13,15-3.65,6.75-10.55,9-17.46,5.71-6.14-2.91-10.17-7.94-13.37-13.7a46.72,46.72,0,0,1-6-22.43,28,28,0,0,1,3.19-14.28c3.65-6.59,10.26-8.84,17.12-5.76A27.22,27.22,0,0,1,212.49,175.13Z"/><path class="cls-1" d="M149.78.89a149,149,0,1,0,115.1,243.64q2.79-3.41,5.36-6.95h0A149,149,0,0,0,149.78.89Zm0,275.64A126.71,126.71,0,0,1,27,181.09v0a113.89,113.89,0,0,1,6.56-16.93c3-6.37,11.34-18.74,16.84-22.93,2.14-1.62,4.37-3.09,6.55-4.65,4.72-3.38,7.37-11.65,5.49-17.12-.92-2.65-2.92-4.16-5.36-5.38-6.81-3.37-10.09-9-10-16.55.09-9.29,8-16.71,17.59-16.65a17.52,17.52,0,0,1,15,26.23,8.81,8.81,0,0,0,.5,10.48c2.66,3.65,6.37,5.56,10.84,4.7,4.68-.9,9.24-2.49,13.87-3.67a81.11,81.11,0,0,1,29.2-1.6c9.24,1.06,18.4,2.66,27.63,3.75,21.62,2.58,41.86-1.28,60.11-13.59.3-.21.61-.4.93-.59A79.94,79.94,0,0,0,252.2,75.42,126.62,126.62,0,0,1,149.78,276.53Z"/><path class="cls-2" d="M252.2,75.42a79.94,79.94,0,0,1-29.46,31.15c-.32.19-.63.38-.93.59-18.25,12.31-38.49,16.17-60.11,13.59-9.23-1.09-18.39-2.69-27.63-3.75a81.11,81.11,0,0,0-29.2,1.6c-4.63,1.18-9.19,2.77-13.87,3.67-4.47.86-8.18-1-10.84-4.7a8.81,8.81,0,0,1-.5-10.48,17.52,17.52,0,0,0-15-26.23c-9.56-.06-17.5,7.36-17.59,16.65-.09,7.52,3.19,13.18,10,16.55,2.44,1.22,4.44,2.73,5.36,5.38,1.88,5.47-.77,13.74-5.49,17.12-2.18,1.56-4.41,3-6.55,4.65-5.5,4.19-13.82,16.56-16.84,22.93A113.89,113.89,0,0,0,27,181.07v0A126.66,126.66,0,1,0,252.2,75.42ZM141.38,240.36a13.29,13.29,0,0,1-17.09,6,25.79,25.79,0,0,1-10.62-9c-6.9-9.65-10.08-20.39-8.89-32.27a22.65,22.65,0,0,1,4.11-11.23,12.74,12.74,0,0,1,15.21-4.2c4.94,2,8.62,5.6,11.63,9.85a47.13,47.13,0,0,1,8.75,25.52C144.46,231.3,143.72,236,141.38,240.36ZM218,216c-3.65,6.75-10.55,9-17.46,5.71-6.14-2.91-10.17-7.94-13.37-13.7a46.72,46.72,0,0,1-6-22.43,28,28,0,0,1,3.19-14.28c3.65-6.59,10.26-8.84,17.12-5.76a27.22,27.22,0,0,1,11,9.63A47.23,47.23,0,0,1,221.15,201C221.12,207,220.34,211.62,218,216Z"/><path class="cls-2" d="M209.55,92.29a17.5,17.5,0,0,1-35-.07,17.69,17.69,0,0,1,17.57-17.49A17.47,17.47,0,0,1,209.55,92.29Z"/><path class="cls-2" d="M149.31,71.34a10.41,10.41,0,1,1,.07,20.82,10.41,10.41,0,0,1-.07-20.82Z"/></svg>