<svg id="Layer_1" data-name="Layer 1" xmlns="http://www.w3.org/2000/svg" viewBox="0 0 612 612"><path d="M133.76,328.61,557.48,112.88c.1,1.86.22,3.1.22,4.34,0,11.78-.06,23.57.06,35.35,0,2.64-.69,4.15-3.18,5.42q-89.52,45.44-178.93,91L189.89,343.62,57.44,411.06c-.79.4-1.64.67-2.87,1.16-.1-1.51-.23-2.63-.23-3.75,0-12,0-24-.06-36.05,0-2.38.61-3.83,2.89-4.89,5.27-2.48,10.48-5.11,15.58-7.91,13.93-7.63,20.93-19.48,21-35.34.07-11.18-.66-22.41,0-33.55a204.63,204.63,0,0,1,35.29-103C159,143.42,200,114.24,251.61,100.32a208.17,208.17,0,0,1,93.25-3.55A212.09,212.09,0,0,1,427.2,131c1.13.78,2.19,1.66,3.58,2.72a25.19,25.19,0,0,1-2.45,1.67c-11.42,5.85-22.85,11.65-34.25,17.53a5.36,5.36,0,0,1-5.53-.12c-38-20-78.07-25.68-120-16.46A173.69,173.69,0,0,0,133.13,325.57C133.22,326.35,133.45,327.11,133.76,328.61Z"/><path d="M181.63,477.93,201,468.07c5.4-2.76,10.87-5.38,16.16-8.33,2.57-1.43,4.58-1.26,7.11.1A166.51,166.51,0,0,0,284.58,479c39.9,4.67,77.41-3,111.73-24C436.73,430.16,463,394.52,475,348.64a168.71,168.71,0,0,0,4.26-61.78c-.1-.91-.38-1.79-.73-3.41l-424,215.9c-.11-1.82-.25-3.12-.25-4.43,0-11.55.13-23.1-.1-34.64-.06-3.31,1.11-5,3.93-6.43q42.75-21.62,85.43-43.43,63.74-32.44,127.47-64.9Q344.33,308.23,417.6,271l136.23-69.31c1-.52,2.07-1,3.52-1.71.14,1.33.33,2.32.33,3.3,0,12.25,0,24.5.06,36.75,0,2.29-.68,3.59-2.82,4.58-4.64,2.16-9.15,4.62-13.72,6.94-16.15,8.18-23.34,21.8-22.64,39.86,3.3,83.88-29.89,149.42-100.16,195.46-27.65,18.11-58.58,27.93-91.54,31q-77.75,7.25-142.2-36.87c-.87-.59-1.7-1.23-2.52-1.88C182,479,182,478.71,181.63,477.93Z"/></svg>