<svg width="19" height="24" viewBox="0 0 19 24" fill="none" xmlns="http://www.w3.org/2000/svg">
<path d="M1.15032 10.1358C0.626411 9.58956 0.272218 8.9548 0.0877417 8.23146C-0.148387 7.29408 0.1025 6.46003 0.71496 5.72932C1.03964 5.33813 1.44548 5.03551 1.87347 4.76979C1.91036 4.74765 1.93988 4.72551 1.98415 4.70336C1.88085 4.48194 1.77754 4.26789 1.67423 4.05384C1.53403 3.76598 1.44548 3.46336 1.46024 3.1386C1.48976 2.66622 1.71113 2.30455 2.06532 2.00932C2.29407 1.81741 2.55972 1.69193 2.8475 1.60336C4.2569 1.14574 5.66629 0.688124 7.08307 0.237885C7.34871 0.149314 7.62174 0.0533615 7.90214 0.0164567C8.79501 -0.10902 9.57718 0.496219 9.69525 1.38193C9.73214 1.65503 9.7838 1.92812 9.82069 2.18646C10.0494 2.18646 10.2708 2.17908 10.4848 2.18646C10.9644 2.2086 11.4441 2.27503 11.9016 2.43741C12.7133 2.73265 13.2446 3.30098 13.4955 4.12765C13.643 4.62956 13.7242 5.13884 13.7242 5.66289C13.7242 5.81789 13.7021 5.97289 13.6873 6.12789C13.8939 6.23122 14.1079 6.32718 14.3071 6.43051C15.2148 6.90289 15.8346 7.63361 16.1667 8.60051C16.4028 9.28694 16.6168 9.98075 16.8382 10.6746C17.4432 12.5641 18.0409 14.4536 18.6386 16.3431C18.8305 16.941 18.8157 17.5536 18.6755 18.1588C18.4394 19.1405 17.9598 19.9893 17.1702 20.6389C16.6832 21.0374 16.1224 21.2958 15.5321 21.495C14.5064 21.8346 13.4659 22.1667 12.4402 22.4915C11.1858 22.8974 9.93138 23.296 8.66956 23.6946C8.21206 23.8422 7.7398 23.9529 7.26017 23.9898C6.90597 24.0193 6.55916 23.9824 6.21234 23.9086C5.75484 23.82 5.31948 23.665 4.91363 23.4436C3.9027 22.8974 3.23859 22.0781 2.89915 20.9784C2.27194 18.9486 1.60782 16.9262 0.958468 14.8965C0.78875 14.3724 0.611653 13.8558 0.508347 13.3169C0.286976 12.1877 0.478831 11.1396 1.12819 10.18C1.12819 10.1727 1.13557 10.1579 1.15032 10.1358ZM3.32714 9.67075C3.26073 9.7667 3.2017 9.84789 3.13528 9.92908C2.90653 10.1948 2.6704 10.4531 2.44903 10.7262C1.80706 11.5381 1.6152 12.4386 1.93988 13.4424C2.16863 14.1436 2.40476 14.8448 2.62613 15.546C3.19432 17.31 3.74774 19.0741 4.31593 20.8381C4.37496 21.0227 4.45613 21.2072 4.56682 21.3696C4.78819 21.6796 5.07597 21.9305 5.39327 22.1298C6.2271 22.6465 7.11996 22.7277 8.04972 22.4324C8.94997 22.152 9.84283 21.8567 10.7431 21.5689C12.1451 21.1186 13.5471 20.6758 14.9491 20.2255C15.3402 20.1 15.7239 19.9598 16.0707 19.7236C16.7127 19.2808 17.0817 18.6608 17.2809 17.9227C17.3842 17.5315 17.4137 17.1403 17.2883 16.7417C16.4692 14.1805 15.6575 11.6193 14.8384 9.05813C14.713 8.65956 14.499 8.32003 14.1891 8.04694C13.739 7.64837 13.2003 7.41218 12.6247 7.27194C12.3443 7.20551 12.0639 7.13908 11.7835 7.07265C11.7023 7.05051 11.6286 6.99884 11.6359 6.92503C11.6433 6.8217 11.6138 6.69622 11.7392 6.6298C12.182 6.3936 12.3517 6.00241 12.3074 5.53003C12.2779 5.19789 12.2041 4.86575 12.1303 4.54098C12.0344 4.11289 11.754 3.84717 11.3334 3.72908C10.78 3.5667 10.2265 3.55194 9.65835 3.63313C9.54029 3.64789 9.42222 3.67003 9.30416 3.69955C9.17872 3.72908 9.1492 3.78075 9.18609 3.89884C9.20085 3.93575 9.20823 3.98003 9.22299 4.01694C9.2894 4.2236 9.2894 4.2236 9.51077 4.20146C9.65097 4.1867 9.79117 4.17932 9.924 4.24575C10.0199 4.29003 10.0347 4.37122 9.96089 4.44503C9.87972 4.51884 9.79855 4.59265 9.70263 4.63694C8.98686 4.9617 8.27847 5.30122 7.54795 5.60384C6.5075 6.03194 5.42279 6.31241 4.30855 6.50432C3.96912 6.56337 3.62968 6.61503 3.29024 6.65194C3.21645 6.65932 3.1279 6.63718 3.05411 6.60765C2.97294 6.58551 2.94343 6.51908 3.00984 6.45265C3.08363 6.37146 3.1648 6.29027 3.25335 6.23122C3.33452 6.17218 3.43782 6.12789 3.51899 6.06884C3.54113 6.05408 3.57065 6.00241 3.56327 5.98765C3.51161 5.84741 3.45258 5.71456 3.40093 5.56694C3.37141 5.57432 3.34928 5.5817 3.32714 5.58908C2.9877 5.72932 2.66303 5.89908 2.36048 6.10575C2.09484 6.29027 1.85133 6.49694 1.6521 6.75527C1.39383 7.0948 1.27577 7.47122 1.40121 7.89194C1.53403 8.34218 1.74065 8.74813 2.06532 9.09503C2.27932 9.32384 2.54496 9.4567 2.86226 9.43456C3.00984 9.42718 3.12053 9.46408 3.20907 9.58218C3.26073 9.6117 3.29024 9.63385 3.32714 9.67075ZM8.11613 1.41146C8.0571 1.42622 7.99807 1.4336 7.94642 1.45574C6.32303 1.97979 4.69964 2.50384 3.08363 3.02789C3.03936 3.04265 2.99508 3.06479 2.95081 3.08694C2.84012 3.15336 2.82536 3.20503 2.8844 3.31574C3.10577 3.77336 3.33452 4.2236 3.56327 4.68122C3.74774 5.05027 3.92484 5.41932 4.10932 5.78098C4.16835 5.89908 4.26428 5.95075 4.38972 5.9286C4.58157 5.8917 4.76605 5.84741 4.95053 5.79575C6.10904 5.48575 7.24541 5.09456 8.3744 4.69598C8.49984 4.6517 8.66218 4.62217 8.67694 4.43765C8.67694 4.43027 8.68432 4.43027 8.6917 4.42289C8.75811 4.37122 8.75811 4.29741 8.74335 4.2236C8.66218 3.75122 8.58839 3.28622 8.50722 2.81384C8.44081 2.40051 8.36702 1.98717 8.30061 1.57384C8.26371 1.44836 8.2342 1.41884 8.11613 1.41146Z" fill="#FFCB00"/>
<path d="M14.2405 10.6082C14.3143 10.837 14.3881 11.0437 14.4545 11.2577C14.816 12.387 15.1776 13.5163 15.5318 14.6456C15.6942 15.1548 15.8491 15.6715 15.9819 16.1882C16.1074 16.6753 16.1443 17.1698 16.0115 17.657C15.827 18.336 15.3916 18.801 14.7792 19.111C14.1298 19.4358 13.4435 19.6572 12.7499 19.8787C11.4807 20.2846 10.2115 20.6832 8.93496 21.0818C8.39629 21.2515 7.83548 21.3401 7.27467 21.3622C6.64746 21.3844 6.11616 21.1334 5.68818 20.6684C5.3635 20.3215 5.15689 19.9008 5.00193 19.4653C4.75842 18.7789 4.52229 18.0925 4.29354 17.406C3.991 16.4982 3.69584 15.5756 3.37854 14.6677C3.28999 14.4094 3.32689 14.1806 3.43757 13.9444C3.59991 13.6048 3.85818 13.3613 4.14596 13.1398C4.25665 13.0513 4.37471 12.9775 4.49278 12.8963C4.74366 12.7191 4.88387 12.2837 4.78056 11.9884C4.72891 11.8482 4.6256 11.767 4.50016 11.7006C4.13858 11.5234 3.96886 11.2208 3.96886 10.8222C3.97624 10.3277 4.39685 9.93651 4.89862 9.94389C5.4004 9.94389 5.79887 10.3351 5.81362 10.8296C5.821 11.0067 5.78411 11.1765 5.68818 11.3315C5.57012 11.5234 5.58487 11.7079 5.7177 11.8851C5.8579 12.077 6.05713 12.1803 6.29326 12.136C6.54415 12.0917 6.78028 12.0032 7.02379 11.9441C7.53294 11.8187 8.04947 11.8039 8.566 11.8556C9.05302 11.9146 9.54004 11.9958 10.0271 12.0548C11.1708 12.1877 12.2408 11.9884 13.2074 11.3389C13.51 11.1322 13.8125 10.9182 14.115 10.7041C14.1519 10.6746 14.1888 10.6451 14.2405 10.6082ZM9.11943 17.5684C9.10467 17.1256 8.95709 16.6458 8.65455 16.2177C8.49221 15.9963 8.30036 15.8044 8.04209 15.6937C7.72479 15.5608 7.4075 15.6641 7.21564 15.9446C7.09758 16.1144 7.03854 16.3063 7.01641 16.5056C6.95 17.1329 7.11971 17.7013 7.48867 18.2106C7.62887 18.4098 7.80596 18.5796 8.03471 18.6829C8.40367 18.8527 8.75048 18.7346 8.94971 18.3803C9.07516 18.1589 9.11943 17.9006 9.11943 17.5684ZM13.1705 16.2989C13.1558 15.8339 13.0156 15.3615 12.713 14.9334C12.5581 14.7194 12.3736 14.5348 12.1301 14.4241C11.7685 14.2617 11.4143 14.3798 11.2225 14.7267C11.0896 14.9629 11.0454 15.2213 11.0527 15.4796C11.0601 15.9003 11.1634 16.2989 11.37 16.6679C11.5398 16.9706 11.7537 17.2363 12.0784 17.3913C12.4474 17.5684 12.809 17.4429 13.0008 17.0887C13.1336 16.8598 13.1705 16.6089 13.1705 16.2989Z" fill="#FFCB00"/>
<path d="M12.5576 10.5491C12.5576 11.0657 12.1444 11.4717 11.6353 11.4717C11.1187 11.4717 10.7129 11.0583 10.7129 10.5491C10.7129 10.0472 11.1409 9.61906 11.6426 9.62644C12.1518 9.61906 12.5576 10.0324 12.5576 10.5491Z" fill="#FFCB00"/>
<path d="M9.37862 9.44189C9.68116 9.44189 9.93205 9.68547 9.93205 9.9807C9.93205 10.2907 9.68854 10.5417 9.37862 10.5417C9.08346 10.5417 8.83257 10.2907 8.8252 9.99547C8.8252 9.69285 9.07608 9.44189 9.37862 9.44189Z" fill="#FFCB00"/>
</svg>
