<svg id="Layer_1" data-name="Layer 1" xmlns="http://www.w3.org/2000/svg" viewBox="0 0 256 256"><defs><style>.cls-1,.cls-3{fill:#36b04a;}.cls-2{fill:#191b1f;}.cls-3{opacity:0.2;}</style></defs><rect class="cls-1" x="-43" y="-26" width="334" height="314"/><path class="cls-1" d="M218.51,37.49A128,128,0,1,0,256,128,127.62,127.62,0,0,0,218.51,37.49ZM128,242.36A114.36,114.36,0,1,1,242.36,128,114.36,114.36,0,0,1,128,242.36Z"/><circle class="cls-2" cx="128" cy="128" r="114.36"/><path class="cls-3" d="M128,128V242.36A114.36,114.36,0,0,1,13.64,128Z"/><path class="cls-3" d="M242.36,128H128V13.64A114.36,114.36,0,0,1,242.36,128Z"/></svg>