<svg id="Layer_1" data-name="Layer 1" xmlns="http://www.w3.org/2000/svg" viewBox="0 0 720 720"><path d="M19.73,503.8c0-19.31,0-38,.1-56.62A4.68,4.68,0,0,1,22.16,444C29,440.26,36.07,436.86,43,433.24c20.33-10.66,30.69-27.47,29.85-50.46-.62-17.39-1-34.73.71-52.08A288.37,288.37,0,0,1,197.43,121.82,279.66,279.66,0,0,1,315.61,74.89c62.35-9.4,121.67.23,177.63,29.4,10,5.21,19.43,11.53,29.08,17.41,2.17,1.32,4.18,2.92,6.5,4.57-1,.57-1.59,1-2.28,1.36-16.28,8.33-32.58,16.62-48.83,25a4.78,4.78,0,0,1-5.12-.07,223.47,223.47,0,0,0-91.28-27.71c-69.56-5.41-130.52,15.19-181.93,62.53-34,31.29-56.43,69.71-67.79,114.51-7.37,29-8.85,58.41-5.19,88.76L700.13,97.8v36.9c0,6.19-.15,12.38.07,18.55.1,2.62-.82,3.85-3.1,5q-68.7,34.92-137.31,70l-417.28,213L23.29,502.11C22.28,502.63,21.24,503.09,19.73,503.8Z"/><path d="M19.73,621.65c0-19.51,0-38.29.12-57.06,0-1.05,1.43-2.5,2.55-3.08,20.09-10.36,40.24-20.6,60.37-30.88L530.31,302.22l166.07-84.73c1.11-.56,2.25-1.07,3.75-1.78V233.2c0,12.36-.14,24.73.1,37.1.06,3.21-1,4.7-3.8,6-6.75,3.18-13.37,6.61-20,10.11-19.88,10.55-29.79,27.07-29.57,49.64.14,14.34.79,28.71.06,43A262.36,262.36,0,0,1,622,478.82c-41.53,87.55-109.51,143.25-204.33,163.25-81,17.1-156.23.25-224.39-47.08-.74-.51-1.42-1.12-2.39-1.9,1.25-.68,2.25-1.24,3.27-1.76,15.87-8.11,31.76-16.18,47.59-24.37a5,5,0,0,1,5.42.07c38.58,21.09,80,30.81,123.78,28.39,66.87-3.68,122.68-30.91,166.92-81.25,27.86-31.7,45.43-68.58,53.36-110A240,240,0,0,0,593.58,330c0-.2-.2-.38-.51-1Z"/></svg>